<svg width="126" height="32" viewBox="0 0 126 32" fill="none" xmlns="http://www.w3.org/2000/svg">
<path d="M40.3663 12.9402C40.3663 10.761 38.1856 8.44656 34.4119 8.44656C30.1742 8.44656 25.5189 11.4674 24.8075 17.494C24.0806 23.5807 27.978 26.286 31.9064 26.286C35.8347 26.286 37.8917 24.7981 39.9951 22.8143C38.1856 20.605 35.8502 21.627 35.4017 21.8524C34.9068 22.0929 34.2727 22.4235 32.9735 22.4235C31.4579 22.4235 29.9113 21.7622 29.9113 19.0119C39.6239 18.0801 40.3663 15.1194 40.3663 12.9402ZM35.5563 13.3009C35.4945 13.9772 35.2161 15.1345 30.2979 15.7807C31.3341 12.2038 33.3138 11.9333 34.2263 11.9333C35.0769 11.9333 35.6182 12.5795 35.5563 13.3009ZM19.1005 13.8871C19.1005 13.8871 17.0126 20.2593 16.8425 20.7854C16.7806 20.2443 15.2495 8.80726 15.2495 8.80726C11.6923 8.80726 9.78998 11.272 8.78469 13.872C8.78469 13.872 6.24827 20.2593 6.03174 20.8004C6.01628 20.3044 5.64509 13.9472 5.64509 13.9472C5.42857 10.761 2.42816 8.82229 0 8.82229L2.93854 26.1507C6.66585 26.1357 8.67643 23.6859 9.72812 21.0859C9.72812 21.0859 11.9707 15.4501 12.0635 15.1946C12.0789 15.435 13.6719 26.1507 13.6719 26.1507C17.4147 26.1507 19.4253 23.8513 20.5079 21.3414L25.7509 8.82229C22.0545 8.82229 20.1058 11.272 19.1005 13.8871ZM54.1001 8.4165C51.7956 8.4165 50.0325 9.63385 48.5478 11.4223V11.4073L49.8779 0.992188C46.8156 0.992188 44.3256 3.57717 43.8461 7.42459L41.5262 26.0154C43.2893 26.0154 45.1607 25.5195 46.166 24.257C47.0631 25.3842 48.4086 26.286 50.4037 26.286C55.5694 26.286 59.1111 20.4547 59.1111 14.9842C59.0801 9.99455 56.5901 8.4165 54.1001 8.4165ZM53.6206 17.3587C53.0793 20.4096 51.3317 22.4836 49.6459 22.4836C47.9446 22.4836 47.2177 21.7472 47.2177 21.7472C47.5425 19.0721 47.7436 17.4339 48.3622 16.0212C48.9808 14.6084 50.4501 12.3541 51.9812 12.3541C53.4814 12.3541 54.162 14.2928 53.6206 17.3587ZM72.0097 8.82229H68.4061L68.4216 8.64194C68.6691 6.35753 69.2258 5.15521 71.0663 4.95984C72.319 4.83961 72.8758 4.20839 73.015 3.51706C73.1233 2.97601 73.4635 1.09739 73.4635 1.09739C66.2254 1.0523 63.9519 4.08816 63.3642 8.71708L63.3488 8.82229H63.2714C62.096 8.82229 60.7969 10.1148 60.5803 11.7529L60.503 12.3541H62.9157L60.8897 28.6155L60.271 31.5311C60.3484 31.5311 60.4411 31.5461 60.5185 31.5461C63.9055 31.4259 66.0708 28.8259 66.5502 25.0536L68.1278 12.3541H69.2568C70.3703 12.3541 71.6695 11.272 71.9015 9.46853L72.0097 8.82229ZM90.7545 8.52171C86.5942 8.52171 82.6658 11.4974 81.4594 16.1715C80.2531 20.8455 82.0781 26.3761 88.2026 26.3761C94.3117 26.3761 97.8379 20.62 97.8379 15.8258C97.8379 11.0616 94.5128 8.52171 90.7545 8.52171ZM92.4403 17.2085C92.2238 19.3275 91.2649 22.5437 88.6357 22.5437C85.991 22.5437 86.3622 18.7865 86.6251 16.9981C86.9035 15.0894 88.0016 12.3691 90.3679 12.3691C92.4867 12.3691 92.6878 14.8188 92.4403 17.2085ZM118.392 13.8871C118.392 13.8871 116.304 20.2593 116.134 20.7854C116.072 20.2443 114.541 8.80726 114.541 8.80726C110.984 8.80726 109.082 11.272 108.076 13.872C108.076 13.872 105.54 20.2593 105.323 20.8004C105.308 20.3044 104.937 13.9472 104.937 13.9472C104.72 10.761 101.72 8.82229 99.2917 8.82229L102.215 26.1507C105.942 26.1357 107.953 23.6859 109.004 21.0859C109.004 21.0859 111.247 15.4501 111.324 15.1946C111.355 15.435 112.933 26.1507 112.933 26.1507C116.676 26.1507 118.686 23.8513 119.769 21.3414L125.012 8.82229C121.331 8.82229 119.382 11.272 118.392 13.8871ZM75.4122 1.09739L72.3809 24.8582L71.7623 27.7889C71.8396 27.7889 71.9324 27.8039 72.0097 27.8039C75.273 27.7588 77.5929 24.9784 78.026 21.4767L79.7736 7.8454C80.2995 3.68237 77.7476 1.09739 75.4122 1.09739Z" fill="white"/>
</svg>
